<svg width="96" height="96" viewBox="0 0 96 96" fill="none" xmlns="http://www.w3.org/2000/svg">
<g clip-path="url(#clip0_2642_88960)">
<path d="M48 86.4001C69.2077 86.4001 86.4 69.2078 86.4 48.0001C86.4 26.7924 69.2077 9.6001 48 9.6001C26.7922 9.6001 9.59998 26.7924 9.59998 48.0001C9.59998 69.2078 26.7922 86.4001 48 86.4001Z" fill="#C2DBEA"/>
<path fill-rule="evenodd" clip-rule="evenodd" d="M73.0081 51.008H74.9841V36.064H73.0081V51.008Z" fill="#0F3D50"/>
<path fill-rule="evenodd" clip-rule="evenodd" d="M85.208 70.3199C85.208 71.8959 67.944 73.1759 46.648 73.1759C25.352 73.1759 8.08801 71.8959 8.08801 70.3199C8.08801 68.7439 25.352 67.4639 46.648 67.4639C67.944 67.4639 85.208 68.7439 85.208 70.3199Z" fill="#0F3D50" fill-opacity="0.2"/>
<path fill-rule="evenodd" clip-rule="evenodd" d="M79.832 37.128H69.024C67.336 37.128 65.968 35.76 65.968 34.072V20.888C65.968 19.2 67.336 17.832 69.024 17.832H79.832C81.52 17.832 82.888 19.2 82.888 20.888V34.072C82.888 35.76 81.52 37.128 79.832 37.128Z" fill="#0077CD"/>
<path fill-rule="evenodd" clip-rule="evenodd" d="M73.3281 24.1041C73.3281 24.1041 73.2721 24.1281 73.2721 24.1601V27.1521C73.2721 27.1521 73.2961 27.2081 73.3281 27.2081H74.9201C75.4721 27.2081 75.8961 27.0641 76.1681 26.7841C76.4481 26.4961 76.5841 26.1281 76.5841 25.6721C76.5841 25.2161 76.4481 24.8401 76.1681 24.5521C75.8961 24.2641 75.4721 24.1201 74.9201 24.1201H73.3281V24.1041ZM72.9041 33.0881H71.3761C71.1681 33.0881 71.0081 32.9201 71.0081 32.7201V22.4881C71.0081 22.2881 71.1761 22.1201 71.3761 22.1201H74.9201C76.1601 22.1201 77.1361 22.4321 77.8401 23.0401C78.5441 23.6561 78.9041 24.5361 78.9041 25.6721C78.9041 26.8081 78.5441 27.6881 77.8401 28.3041C77.1441 28.9121 76.1601 29.2241 74.9201 29.2241H73.3281C73.3281 29.2241 73.2721 29.2481 73.2721 29.2801V32.7361C73.2721 32.9361 73.1041 33.1041 72.9041 33.1041V33.0881Z" fill="white"/>
<path fill-rule="evenodd" clip-rule="evenodd" d="M68.584 46.344L53.616 36.584C52.04 35.68 50.264 35.208 48.448 35.208H27.352C25.064 35.208 22.848 35.96 21.032 37.352L12.968 43.544C11.952 44.32 11.376 45.544 11.408 46.824L11.552 52.056C11.568 52.528 11.368 52.992 11.008 53.304L10.336 53.888C9.99199 54.192 9.79199 54.632 9.79199 55.088V59.488L12.064 61.288C12.504 56.656 16.4 53.032 21.152 53.032C26.192 53.032 30.28 57.12 30.28 62.16C30.28 62.696 30.224 63.208 30.136 63.72H64.272C64.184 63.216 64.128 62.696 64.128 62.16C64.128 57.12 68.216 53.032 73.256 53.032C78.296 53.032 82.384 57.12 82.384 62.16C82.384 62.696 82.328 63.208 82.24 63.72H84.608L86.072 61.712C86.28 61.424 86.392 61.08 86.392 60.728V54.368C84.832 46.352 68.576 46.352 68.576 46.352L68.584 46.344Z" fill="#5EB6E4"/>
<path fill-rule="evenodd" clip-rule="evenodd" d="M21.032 68.7123C17.6 68.7123 14.808 65.9203 14.808 62.4963C14.808 59.0723 17.6 56.2803 21.032 56.2803C24.464 56.2803 27.248 59.0723 27.248 62.4963C27.248 65.9203 24.456 68.7123 21.032 68.7123Z" fill="#D3FFFF"/>
<path fill-rule="evenodd" clip-rule="evenodd" d="M21.032 55.2559C17.032 55.2559 13.792 58.4959 13.792 62.4959C13.792 66.4959 17.032 69.7359 21.032 69.7359C25.032 69.7359 28.272 66.4959 28.272 62.4959C28.272 58.4959 25.032 55.2559 21.032 55.2559ZM21.032 57.2959C23.896 57.2959 26.232 59.6319 26.232 62.4959C26.232 65.3599 23.896 67.6959 21.032 67.6959C18.168 67.6959 15.832 65.3599 15.832 62.4959C15.832 59.6319 18.168 57.2959 21.032 57.2959Z" fill="#0F3D50"/>
<path fill-rule="evenodd" clip-rule="evenodd" d="M73.3759 68.7123C69.9439 68.7123 67.1519 65.9203 67.1519 62.4963C67.1519 59.0723 69.9439 56.2803 73.3759 56.2803C76.8079 56.2803 79.5919 59.0723 79.5919 62.4963C79.5919 65.9203 76.7999 68.7123 73.3759 68.7123Z" fill="#D3FFFF"/>
<path fill-rule="evenodd" clip-rule="evenodd" d="M73.376 55.2559C69.376 55.2559 66.136 58.4959 66.136 62.4959C66.136 66.4959 69.376 69.7359 73.376 69.7359C77.376 69.7359 80.616 66.4959 80.616 62.4959C80.616 58.4959 77.376 55.2559 73.376 55.2559ZM73.376 57.2959C76.24 57.2959 78.576 59.6319 78.576 62.4959C78.576 65.3599 76.24 67.6959 73.376 67.6959C70.512 67.6959 68.176 65.3599 68.176 62.4959C68.176 59.6319 70.512 57.2959 73.376 57.2959Z" fill="#0F3D50"/>
<path fill-rule="evenodd" clip-rule="evenodd" d="M23.688 62.5998C23.688 64.1278 22.448 65.3598 20.928 65.3598C19.408 65.3598 18.168 64.1278 18.168 62.5998C18.168 61.0718 19.4 59.8398 20.928 59.8398C22.456 59.8398 23.688 61.0718 23.688 62.5998Z" fill="#E37222"/>
<path fill-rule="evenodd" clip-rule="evenodd" d="M76.24 62.5998C76.24 64.1278 75.008 65.3598 73.48 65.3598C71.952 65.3598 70.72 64.1278 70.72 62.5998C70.72 61.0718 71.96 59.8398 73.48 59.8398C75 59.8398 76.24 61.0718 76.24 62.5998Z" fill="#E37222"/>
<path fill-rule="evenodd" clip-rule="evenodd" d="M63.7121 46.584H19.0481L23.7841 39.616C24.6881 38.448 26.0881 37.76 27.5681 37.76H47.9441C49.3921 37.76 52.0641 37.624 53.7281 38.92C55.3841 40.208 63.7041 46.592 63.7041 46.592L63.7121 46.584Z" fill="white"/>
<path fill-rule="evenodd" clip-rule="evenodd" d="M44.992 47.3044L42.544 47.1444L39.208 37.3444L41.368 36.6084L44.992 47.3044Z" fill="#5EB6E4"/>
<path fill-rule="evenodd" clip-rule="evenodd" d="M64.2721 63.728C64.1841 63.216 64.1281 62.696 64.1281 62.16C64.1281 60.2 64.7521 58.384 65.8081 56.896H28.6001C29.6561 58.384 30.2801 60.2 30.2801 62.16C30.2801 62.696 30.2241 63.216 30.1361 63.728H64.2721Z" fill="#0187CB"/>
<path fill-rule="evenodd" clip-rule="evenodd" d="M80.2962 49.6718C78.8322 49.6718 77.2642 49.6078 77.2642 50.5598C77.2642 52.1918 78.2242 51.3918 81.4802 53.9438C82.4002 54.6638 84.5682 54.6798 85.0802 54.5838C84.5042 52.1758 82.6322 50.7758 80.2962 49.6718Z" fill="white"/>
</g>
<defs>
<clipPath id="clip0_2642_88960">
<rect width="96" height="96" fill="white"/>
</clipPath>
</defs>
</svg>
